o Checkmark
v 0.0065486319999999978 0.004 -0.0030347306666666705
v -0.010861137333333337 0.004 0.02523618
v -0.010861137333333337 0 0.02523618
v 0.0065486319999999978 0 -0.0030347306666666705
v -0.027472293333333331 0.004 0.047118184000000007
v -0.027472293333333331 0 0.047118184000000007
v -0.034819535999999991 0.004 0.054225841600000005
v -0.034819535999999991 0 0.054225841600000005
v -0.041128581333333331 0.004 0.056621681466666664
v -0.041128581333333331 0 0.056621681466666664
v -0.055743203999999991 0.004 0.058538353333333334
v -0.055743203999999991 0 0.058538353333333334
v -0.057580014666666651 0.004 0.057260572133333333
v -0.057580014666666651 0 0.057260572133333333
v -0.055743203999999991 0.004 0.054385564266666665
v -0.055743203999999991 0 0.054385564266666665
v -0.022201446666666659 0.004 0.013736147999999995
v -0.022201446666666659 0 0.013736147999999995
v 0.0073472453333333285 0.004 -0.042406365333333328
v 0.0073472453333333285 0 -0.042406365333333328
v 0.013736151999999995 0.004 -0.056062652
v 0.013736151999999995 0 -0.056062652
v 0.024916737333333324 0.004 -0.058538353333333321
v 0.024916737333333324 0 -0.058538353333333321
v 0.032663286666666659 0.004 -0.057340433333333329
v 0.032663286666666659 0 -0.057340433333333329
v 0.038253578666666663 0.004 -0.049753606666666658
v 0.038253578666666663 0 -0.049753606666666658
v 0.053347370933333325 0.004 -0.030586888000000007
v 0.053347370933333325 0 -0.030586888000000007
v 0.0575800208 0.004 -0.023718814666666675
v 0.0575800208 0 -0.023718814666666675
v 0.052868202666666662 0.004 -0.017170185333333338
v 0.052868202666666662 0 -0.017170185333333338
v 0.045121653333333331 0.004 -0.013895870666666668
v 0.045121653333333331 0 -0.013895870666666668
v 0.034979265333333329 0.004 -0.01868755066666667
v 0.034979265333333329 0 -0.01868755066666667
v 0.022281313333333327 0.004 -0.035059122666666664
v 0.022281313333333327 0 -0.035059122666666664
v 0.022281313333333334 0.004 -0.035059122666666664
v 0.022281313333333334 0 -0.035059122666666664
vn 0.010222250666666667 0 0.0056435342222222193
vn 0.0086250231111111089 0 0.005962978666666667
vn 0.0086250231111111089 0 0.005962978666666667
vn 0.010222250666666667 0 0.0056435342222222193
vn 0.010115768 0 0.0070277973333333354
vn 0.0044722346666666718 0 0.0040463066666666624
vn 0.0044722346666666718 0 0.0040463066666666624
vn 0.010115768 0 0.0070277973333333354
vn 0.0028750071111110984 0 0.0026088035555555562
vn 0.0018634312888888976 0 0.0022893582222222181
vn 0.0018634312888888976 0 0.0022893582222222181
vn 0.0028750071111110984 0 0.0026088035555555562
vn 0.0010648177777777684 0 0.0013310222222222209
vn 0.00053240879999999491 0 0.0028750079999999983
vn 0.00053240879999999491 0 0.0028750079999999983
vn 0.0010648177777777684 0 0.0013310222222222209
vn 0.0012777812444444495 0 0.0069745555555555463
vn 0 0 0.0027685262222222271
vn 0 0 0.0027685262222222271
vn 0.0012777812444444495 0 0.0069745555555555463
vn 0 0 0.0012245404444444358
vn -0.00085185413333333654 0 0
vn -0.00085185413333333654 0 0
vn 0 0 0.0012245404444444358
vn -0.00079861333333332979 0 0
vn -0.0011180585777777821 0 -0.0012245404444444358
vn -0.0011180585777777821 0 -0.0012245404444444358
vn -0.00079861333333332979 0 0
vn -0.0094768775111111134 0 -0.010648176888888881
vn -0.017622733333333335 0 -0.011712994666666664
vn -0.017622733333333335 0 -0.011712994666666664
vn -0.0094768775111111134 0 -0.010648176888888881
vn -0.017622732444444438 0 -0.011659753777777769
vn -0.019805609777777781 0 -0.0080393742222222217
vn -0.019805609777777781 0 -0.0080393742222222217
vn -0.017622732444444438 0 -0.011659753777777769
vn -0.0074004826666666523 0 -0.0030347306666666605
vn -0.0017037084444444517 0 -0.0012245404444444427
vn -0.0017037084444444517 0 -0.0012245404444444427
vn -0.0074004826666666523 0 -0.0030347306666666605
vn -0.0016504675555555418 0 -0.0011712986666666727
vn 0 0 -0.0062824248888888878
vn 0 0 -0.0062824248888888878
vn -0.0016504675555555418 0 -0.0011712986666666727
vn 0 0 -0.004099548444444448
vn 0.00079861333333332285 0 -0.0010648177777777754
vn 0.00079861333333332285 0 -0.0010648177777777754
vn 0 0 -0.004099548444444448
vn 0.00079861333333331591 0 -0.0010115768888888932
vn 0.0042592711111111223 0 -0.0027152844444444449
vn 0.0042592711111111223 0 -0.0027152844444444449
vn 0.00079861333333331591 0 -0.0010115768888888932
vn 0.0070810373333333315 0 -0.0046851982222222213
vn 0.0056967751111110937 0 -0.0053773299555555515
vn 0.0056967751111110937 0 -0.0053773299555555515
vn 0.0070810373333333315 0 -0.0046851982222222213
vn 0.00298148888888888 0 -0.0028217665777777873
vn 0.0015972266666666596 0 0
vn 0.0015972266666666596 0 0
vn 0.00298148888888888 0 -0.0028217665777777873
vn 0.0022361173333333324 0 0
vn 0.0021296355555555611 0 0.0031412120888888936
vn 0.0021296355555555611 0 0.0031412120888888936
vn 0.0022361173333333324 0 0
vn 0.0021828764444444468 0 0.003141212444444437
vn 0 0 0.0020231537777777725
vn 0 0 0.0020231537777777725
vn 0.0021828764444444468 0 0.003141212444444437
vn 0 0 0.0028217671111111092
vn -0.0031944533333333313 0 0.0039398248888888876
vn -0.0031944533333333313 0 0.0039398248888888876
vn 0 0 0.0028217671111111092
vn -0.0031412124444444404 0 0.0039930666666666663
vn -0.0077731688888888831 0 0.0044722346666666683
vn -0.0077731688888888831 0 0.0044722346666666683
vn -0.0031412124444444404 0 0.0039930666666666663
vn 0 0 -6.9388939039072284E-18
vn 0 0 -6.9388939039072284E-18
vn 0 0 -6.9388939039072284E-18
vn 0 0 -6.9388939039072284E-18
vn 0.01118058577777778 0 0.0048981608888888951
vn 0.010169008888888886 0 0.0055902933333333354
vn 0.010169008888888886 0 0.0055902933333333354
vn 0.01118058577777778 0 0.0048981608888888951
vn 0 1 0
vn 0 1 0
vn 0 1 0
vn 0 1 0
vn 0 1 0
vn 0 1 0
vn 0 1 0
vn 0 1 0
vn 0 1 0
vn 0 1 0
vn 0 1 0
vn 0 1 0
vn 0 1 0
vn 0 1 0
vn 0 1 0
vn 0 1 0
vn 0 1 0
vn 0 1 0
vn 0 1 0
vn 0 1 0
vn 0 1 0
vn 0 1 0
vn 0 1 0
vn 0 1 0
vn 0 1 0
vn 0 1 0
vn 0 1 0
vn 0 1 0
vn 0 1 0
vn 0 1 0
vn 0 1 0
vn 0 1 0
vn 0 1 0
vn 0 1 0
vn 0 1 0
vn 0 1 0
vn 0 1 0
vn 0 1 0
vn 0 1 0
vn 0 1 0
vn 0 1 0
vn 0 1 0
vn 0 1 0
vn 0 1 0
vn 0 1 0
vn 0 1 0
vn 0 1 0
vn 0 1 0
vn 0 1 0
vn 0 1 0
vn 0 1 0
vn 0 1 0
vn 0 1 0
vn 0 1 0
vn 0 1 0
vn 0 1 0
vn 0 1 0
vn 0 -1 0
vn 0 -1 0
vn 0 -1 0
vn 0 -1 0
vn 0 -1 0
vn 0 -1 0
vn 0 -1 0
vn 0 -1 0
vn 0 -1 0
vn 0 -1 0
vn 0 -1 0
vn 0 -1 0
vn 0 -1 0
vn 0 -1 0
vn 0 -1 0
vn 0 -1 0
vn 0 -1 0
vn 0 -1 0
vn 0 -1 0
vn 0 -1 0
vn 0 -1 0
vn 0 -1 0
vn 0 -1 0
vn 0 -1 0
vn 0 -1 0
vn 0 -1 0
vn 0 -1 0
vn 0 -1 0
vn 0 -1 0
vn 0 -1 0
vn 0 -1 0
vn 0 -1 0
vn 0 -1 0
vn 0 -1 0
vn 0 -1 0
vn 0 -1 0
vn 0 -1 0
vn 0 -1 0
vn 0 -1 0
vn 0 -1 0
vn 0 -1 0
vn 0 -1 0
vn 0 -1 0
vn 0 -1 0
vn 0 -1 0
vn 0 -1 0
vn 0 -1 0
vn 0 -1 0
vn 0 -1 0
vn 0 -1 0
vn 0 -1 0
vn 0 -1 0
vn 0 -1 0
vn 0 -1 0
vn 0 -1 0
vn 0 -1 0
vn 0 -1 0

g Checkmark
f 1//1 2//2 3//3 4//4
f 2//5 5//6 6//7 3//8
f 5//9 7//10 8//11 6//12
f 7//13 9//14 10//15 8//16
f 9//17 11//18 12//19 10//20
f 11//21 13//22 14//23 12//24
f 13//25 15//26 16//27 14//28
f 15//29 17//30 18//31 16//32
f 17//33 19//34 20//35 18//36
f 19//37 21//38 22//39 20//40
f 21//41 23//42 24//43 22//44
f 23//45 25//46 26//47 24//48
f 25//49 27//50 28//51 26//52
f 27//53 29//54 30//55 28//56
f 29//57 31//58 32//59 30//60
f 31//61 33//62 34//63 32//64
f 33//65 35//66 36//67 34//68
f 35//69 37//70 38//71 36//72
f 37//73 39//74 40//75 38//76
f 39//77 41//78 42//79 40//80
f 41//81 1//82 4//83 42//84
f 1//85 41//86 39//87
f 39//88 37//89 35//90
f 39//91 35//92 33//93
f 39//94 33//95 31//96
f 39//97 31//98 29//99
f 39//100 29//101 27//102
f 39//103 27//104 25//105
f 1//106 39//107 25//108
f 1//109 25//110 23//111
f 1//112 23//113 21//114
f 1//115 21//116 19//117
f 1//118 19//119 17//120
f 1//121 17//122 15//123
f 1//124 15//125 13//126
f 1//127 13//128 11//129
f 1//130 11//131 9//132
f 1//133 9//134 7//135
f 1//136 7//137 5//138
f 5//139 2//140 1//141
f 40//142 42//143 4//144
f 36//145 38//146 40//147
f 34//148 36//149 40//150
f 32//151 34//152 40//153
f 30//154 32//155 40//156
f 28//157 30//158 40//159
f 26//160 28//161 40//162
f 26//163 40//164 4//165
f 24//166 26//167 4//168
f 22//169 24//170 4//171
f 20//172 22//173 4//174
f 18//175 20//176 4//177
f 16//178 18//179 4//180
f 14//181 16//182 4//183
f 12//184 14//185 4//186
f 10//187 12//188 4//189
f 8//190 10//191 4//192
f 6//193 8//194 4//195
f 4//196 3//197 6//198